<svg width="800" height="600" viewBox="0 0 800 600" fill="none" xmlns="http://www.w3.org/2000/svg">
  <!-- Fondo del dashboard -->
  <rect width="800" height="600" rx="10" fill="#F9FAFB"/>
  
  <!-- Barra lateral -->
  <rect width="200" height="600" fill="#EFF6FF"/>
  
  <!-- Logo -->
  <circle cx="100" cy="50" r="30" fill="#BFDBFE"/>
  
  <!-- Elementos de menú -->
  <rect x="40" y="120" width="120" height="10" rx="5" fill="#93C5FD"/>
  <rect x="40" y="150" width="120" height="10" rx="5" fill="#BFDBFE"/>
  <rect x="40" y="180" width="120" height="10" rx="5" fill="#BFDBFE"/>
  <rect x="40" y="210" width="120" height="10" rx="5" fill="#BFDBFE"/>
  <rect x="40" y="240" width="120" height="10" rx="5" fill="#BFDBFE"/>
  
  <!-- Contenido principal -->
  <!-- Header -->
  <rect x="220" y="30" width="560" height="40" rx="5" fill="#DBEAFE"/>
  
  <!-- Tarjetas -->
  <rect x="220" y="90" width="170" height="100" rx="8" fill="#E0E7FF"/>
  <rect x="410" y="90" width="170" height="100" rx="8" fill="#EFF6FF"/>
  <rect x="600" y="90" width="170" height="100" rx="8" fill="#DBEAFE"/>
  
  <!-- Tabla -->
  <rect x="220" y="210" width="550" height="40" rx="5" fill="#E0E7FF"/>
  <rect x="220" y="260" width="550" height="30" rx="5" fill="#F3F4F6"/>
  <rect x="220" y="300" width="550" height="30" rx="5" fill="#F9FAFB"/>
  <rect x="220" y="340" width="550" height="30" rx="5" fill="#F3F4F6"/>
  <rect x="220" y="380" width="550" height="30" rx="5" fill="#F9FAFB"/>
  <rect x="220" y="420" width="550" height="30" rx="5" fill="#F3F4F6"/>
  
  <!-- Gráfica -->
  <rect x="220" y="470" width="260" height="110" rx="8" fill="#EFF6FF"/>
  <circle cx="350" cy="525" r="50" fill="#BFDBFE"/>
  <path d="M350 475 L350 525 L400 525" stroke="#3B82F6" stroke-width="8" stroke-linecap="round"/>
  
  <!-- Barra de progreso -->
  <rect x="500" y="470" width="270" height="110" rx="8" fill="#EFF6FF"/>
  <rect x="520" y="500" width="230" height="15" rx="7.5" fill="#DBEAFE"/>
  <rect x="520" y="500" width="150" height="15" rx="7.5" fill="#3B82F6"/>
  <rect x="520" y="530" width="230" height="15" rx="7.5" fill="#DBEAFE"/>
  <rect x="520" y="530" width="180" height="15" rx="7.5" fill="#93C5FD"/>
</svg> 